<?xml version="1.0" encoding="utf-8"?>
<!-- Generator: Adobe Illustrator 23.0.1, SVG Export Plug-In . SVG Version: 6.00 Build 0)  -->
<svg version="1.1" id="Layer_1" xmlns="http://www.w3.org/2000/svg" xmlns:xlink="http://www.w3.org/1999/xlink" x="0px" y="0px"
	 viewBox="0 0 100 100" style="enable-background:new 0 0 100 100;" xml:space="preserve">
<style type="text/css">
	.st0{fill:#FFFFFF;}
	.st1{fill:#BB022C;}
	.st2{fill:#04247B;}
	.st3{fill:#CE152A;}
	.st4{fill:#FD0302;}
	.st5{fill:#060593;}
	.st6{fill:#DD2911;}
	.st7{fill:#FEDD19;}
	.st8{fill:#CB0202;}
	.st9{fill:#040264;}
	.st10{fill:#FECB17;}
	.st11{fill:#DC0201;}
	.st12{fill:#FECD17;}
	.st13{fill:#D9251D;}
	.st14{fill:#FEFE1E;}
	.st15{fill:#EC1C24;}
	.st16{fill:#241D4E;}
</style>
<g id="XMLID_6558_">
	<g>
		<path id="XMLID_7_" d="M76.2,24.1c16.2,16.2,17.6,41.2,3.2,55.7c-14.5,14.5-39.5,13.1-55.7-3.2C7.4,60.4,6,35.4,20.5,21
			C35,6.5,60,7.9,76.2,24.1z"/>
	</g>
	<g id="XMLID_6562_">
		<path id="XMLID_6572_" class="st2" d="M33.4,2.9v27.6L10.7,19.1C16.5,11.8,24.3,6,33.4,2.9z"/>
		<path id="XMLID_6571_" class="st2" d="M89.3,19.1L66.6,30.5V2.9C75.7,6,83.5,11.8,89.3,19.1z"/>
		<path id="XMLID_6570_" class="st2" d="M33.4,69.5v27.6c-9-3.2-16.9-8.9-22.7-16.3L33.4,69.5z"/>
		<path id="XMLID_6569_" class="st2" d="M89.3,80.9C83.5,88.2,75.7,94,66.6,97.1V69.5L89.3,80.9z"/>
		<path id="XMLID_6568_" class="st0" d="M100,50c0,3.4-0.3,6.8-1,10c-0.5,2.3-1.1,4.5-1.9,6.6h-14l11.5,5.8c-1.5,3-3.3,5.8-5.4,8.4
			L66.6,69.5v27.6c-2.1,0.8-4.4,1.4-6.6,1.9c-3.2,0.7-6.6,1-10,1c-3.4,0-6.8-0.3-10-1c-2.3-0.5-4.5-1.1-6.6-1.9V69.5L10.7,80.9
			C10,80,9.3,79,8.7,78.1l22.9-11.5H16.7L5.3,72.3C3.3,68.5,1.9,64.3,1,60c-0.7-3.2-1-6.6-1-10c0-3.4,0.3-6.8,1-10
			c0.5-2.3,1.1-4.5,1.8-6.6h13.9L5.3,27.6c1.5-3,3.3-5.9,5.4-8.5l22.7,11.4V2.9C35.5,2.1,37.7,1.5,40,1c3.2-0.7,6.6-1,10-1
			c3.4,0,6.8,0.3,10,1c2.3,0.5,4.5,1.1,6.6,1.9v27.6l22.7-11.4c0.7,0.9,1.4,1.8,2,2.7l-23,11.5h14.9l11.5-5.7c2,3.9,3.4,8,4.3,12.4
			C99.6,43.2,100,46.6,100,50z"/>
		<path id="XMLID_6567_" class="st3" d="M16.8,33.4H2.9c0.7-2,1.5-3.9,2.4-5.7L16.8,33.4z"/>
		<path id="XMLID_6566_" class="st3" d="M97.1,66.6c-0.7,2-1.5,3.9-2.5,5.8l-11.5-5.8H97.1z"/>
		<path id="XMLID_6565_" class="st3" d="M94.7,27.6l-11.5,5.7H68.3l23-11.5C92.6,23.7,93.7,25.6,94.7,27.6z"/>
		<path id="XMLID_6564_" class="st3" d="M31.6,66.6L8.7,78.1c-1.3-1.8-2.4-3.8-3.4-5.8l11.4-5.7H31.6z"/>
		<path id="XMLID_6563_" class="st3" d="M100,50c0,3.4-0.3,6.8-1,10H60v39c-3.2,0.7-6.6,1-10,1c-3.4,0-6.8-0.3-10-1V60H1
			c-0.7-3.2-1-6.6-1-10c0-3.4,0.3-6.8,1-10h39V1c3.2-0.7,6.6-1,10-1c3.4,0,6.8,0.3,10,1v39h39C99.6,43.2,100,46.6,100,50z"/>
	</g>
</g>
<g>
	<path d="M50,0.3c27.4,0,49.8,22.3,49.8,49.8S77.4,99.8,50,99.8S0.3,77.4,0.3,50S22.6,0.3,50,0.3 M50,0C22.4,0,0,22.4,0,50
		s22.4,50,50,50s50-22.4,50-50S77.6,0,50,0L50,0z"/>
</g>
</svg>
