<?xml version="1.0" encoding="utf-8"?>
<!-- Generator: Adobe Illustrator 23.0.1, SVG Export Plug-In . SVG Version: 6.00 Build 0)  -->
<svg version="1.1" id="Layer_1" xmlns="http://www.w3.org/2000/svg" xmlns:xlink="http://www.w3.org/1999/xlink" x="0px" y="0px"
	 viewBox="0 0 100 100" style="enable-background:new 0 0 100 100;" xml:space="preserve">
<style type="text/css">
	.st0{fill:#FFFFFF;}
	.st1{fill:#BB022C;}
	.st2{fill:#04247B;}
	.st3{fill:#CE152A;}
	.st4{fill:#FD0302;}
	.st5{fill:#060593;}
	.st6{fill:#DD2911;}
	.st7{fill:#FEDD19;}
	.st8{fill:#CB0202;}
	.st9{fill:#040264;}
	.st10{fill:#FECB17;}
	.st11{fill:#DC0201;}
	.st12{fill:#FECD17;}
	.st13{fill:#D9251D;}
	.st14{fill:#FEFE1E;}
	.st15{fill:#EC1C24;}
	.st16{fill:#241D4E;}
</style>
<g id="XMLID_6886_">
	<g>
		<path id="XMLID_8_" d="M76.2,23.9c16.2,16.2,17.6,41.2,3.2,55.7c-14.5,14.5-39.5,13.1-55.7-3.2C7.4,60.3,6,35.3,20.5,20.8
			C35,6.3,59.9,7.7,76.2,23.9z"/>
	</g>
	<g id="XMLID_6890_">
		<path id="XMLID_6892_" class="st0" d="M100,49.8c0,27.6-22.4,50-50,50c-27.6,0-50-22.4-50-50C0,24.3,19.3,3.1,44,0.2H56
			C80.7,3.1,100,24.3,100,49.8z"/>
		<circle id="XMLID_6891_" class="st1" cx="50" cy="50" r="30"/>
	</g>
</g>
<g>
	<path d="M50,0.3c27.4,0,49.8,22.3,49.8,49.8S77.4,99.8,50,99.8S0.3,77.4,0.3,50S22.6,0.3,50,0.3 M50,0C22.4,0,0,22.4,0,50
		s22.4,50,50,50s50-22.4,50-50S77.6,0,50,0L50,0z"/>
</g>
</svg>
