<?xml version="1.0" encoding="utf-8"?>
<!-- Generator: Adobe Illustrator 23.0.1, SVG Export Plug-In . SVG Version: 6.00 Build 0)  -->
<svg version="1.1" id="Layer_1" xmlns="http://www.w3.org/2000/svg" xmlns:xlink="http://www.w3.org/1999/xlink" x="0px" y="0px"
	 viewBox="0 0 100 100" style="enable-background:new 0 0 100 100;" xml:space="preserve">
<style type="text/css">
	.st0{fill:#FFFFFF;}
	.st1{fill:#BB022C;}
	.st2{fill:#04247B;}
	.st3{fill:#CE152A;}
	.st4{fill:#FD0302;}
	.st5{fill:#060593;}
	.st6{fill:#DD2911;}
	.st7{fill:#FEDD19;}
	.st8{fill:#CB0202;}
	.st9{fill:#040264;}
	.st10{fill:#FECB17;}
	.st11{fill:#DC0201;}
	.st12{fill:#FECD17;}
	.st13{fill:#D9251D;}
	.st14{fill:#FEFE1E;}
	.st15{fill:#EC1C24;}
	.st16{fill:#241D4E;}
	.st17{fill:#C60C30;}
	.st18{fill:#003478;}
</style>
<g id="XMLID_6908_">
	<g id="XMLID_6943_">
		<circle id="XMLID_6944_" class="st0" cx="50" cy="50" r="50"/>
	</g>
	<g id="XMLID_6940_">
		<path id="XMLID_6942_" class="st17" d="M50,32.8c-6.9,0-12.9,4.1-15.6,9.9l0,0c0,1.8,0.1,7.3,3.6,9.5c3.1,2,7.1,2.8,12-2.2
			s9-4.1,11.2-3c2.2,1,5.1,3.6,4.4,10.3h0c1-2.2,1.6-4.7,1.6-7.3C67.2,40.5,59.5,32.8,50,32.8z"/>
		<path id="XMLID_6941_" class="st18" d="M65.6,57.3c0.7-6.8-2.2-9.3-4.4-10.3c-2.2-1-6.3-2-11.2,3s-8.9,4.2-12,2.2
			c-3.5-2.2-3.6-7.7-3.6-9.5l0,0c-1,2.2-1.6,4.7-1.6,7.3c0,9.5,7.7,17.2,17.2,17.2C56.9,67.2,62.9,63.2,65.6,57.3L65.6,57.3
			L65.6,57.3z"/>
	</g>
	<g id="XMLID_6923_">
		<g id="XMLID_6931_">
			<g id="XMLID_6937_">
				
					<rect id="XMLID_6939_" x="25.8" y="56.6" transform="matrix(0.8321 -0.5547 0.5547 0.8321 -31.5791 26.0693)" width="2.8" height="17.2"/>
				
					<rect id="XMLID_6938_" x="18.7" y="61.3" transform="matrix(0.8321 -0.5547 0.5547 0.8321 -35.4249 22.903)" width="2.8" height="17.2"/>
			</g>
			<g id="XMLID_6932_">
				
					<rect id="XMLID_6936_" x="19.7" y="59.7" transform="matrix(0.8321 -0.5547 0.5547 0.8321 -31.7816 22.394)" width="2.8" height="7.9"/>
				<polygon id="XMLID_6935_" points="22.9,69 27.3,75.5 29.6,74 25.3,67.4 				"/>
			</g>
		</g>
		<g id="XMLID_6924_">
			<polygon id="XMLID_6930_" points="85.9,63.5 83.5,62 79.1,68.6 81.5,70.1 			"/>
			<polygon id="XMLID_6929_" points="74,76.4 76.3,77.9 80.7,71.3 78.3,69.8 			"/>
			<polygon id="XMLID_6928_" points="82.3,61.2 79.9,59.6 75.6,66.2 77.9,67.7 			"/>
			<polygon id="XMLID_6927_" points="70.4,74 72.7,75.5 77.1,69 74.7,67.4 			"/>
			<polygon id="XMLID_6926_" points="66.8,71.6 69.2,73.2 73.5,66.6 71.2,65 			"/>
			
				<rect id="XMLID_6925_" x="71.4" y="59.9" transform="matrix(0.5529 -0.8333 0.8333 0.5529 -17.3942 90.1778)" width="7.9" height="2.8"/>
		</g>
	</g>
	<g id="XMLID_6909_">
		<g id="XMLID_6916_">
			<polygon id="XMLID_6922_" points="82.3,38.8 79.9,40.4 70.4,26 72.8,24.4 			"/>
			<g id="XMLID_6917_">
				<polygon id="XMLID_6921_" points="83.5,38 85.9,36.4 81.5,29.8 79.1,31.4 				"/>
				<polygon id="XMLID_6920_" points="76.3,22 74,23.6 78.3,30.2 80.7,28.6 				"/>
				
					<rect id="XMLID_6919_" x="73.9" y="34.7" transform="matrix(0.8339 -0.5519 0.5519 0.8339 -8.8233 48.0007)" width="2.8" height="7.9"/>
				<polygon id="XMLID_6918_" points="69.2,26.8 66.8,28.3 71.2,34.9 73.5,33.4 				"/>
			</g>
		</g>
		<g id="XMLID_6910_">
			<polygon id="XMLID_6913_" points="23.6,42.7 21.3,41.1 30.9,26.8 33.2,28.4 			"/>
			<polygon id="XMLID_6912_" points="20.1,40.3 17.7,38.8 27.3,24.4 29.7,26 			"/>
			<polygon id="XMLID_6911_" points="16.5,38 14.1,36.4 23.7,22 26.1,23.6 			"/>
		</g>
	</g>
</g>
<g>
	<path d="M50,0.3c27.4,0,49.8,22.3,49.8,49.8S77.4,99.8,50,99.8S0.3,77.4,0.3,50S22.6,0.3,50,0.3 M50,0C22.4,0,0,22.4,0,50
		s22.4,50,50,50s50-22.4,50-50S77.6,0,50,0L50,0z"/>
</g>
</svg>
